<svg width="494" height="360" viewBox="0 0 494 360" fill="none" xmlns="http://www.w3.org/2000/svg">
<path d="M425.037 123.396C425.037 123.396 424.743 99.3918 427.062 89.2642C429.381 79.1366 431.11 66.9874 436.908 68.4398C442.705 69.8922 438.932 81.4526 438.067 89.5586C437.203 97.6646 434.589 110.677 434.884 114.426C435.178 118.195 435.748 120.785 435.748 120.785C435.748 120.785 448.483 82.3162 450.527 78.8422C452.552 75.3682 455.46 69.8726 458.349 70.4614C461.238 71.0306 463.852 76.5262 463.852 76.5262C463.852 76.5262 463.852 70.7362 469.06 73.3466C474.268 75.957 473.404 82.0218 473.109 86.9482C472.814 91.8746 467.036 108.361 467.036 108.361C467.036 108.361 479.201 94.1906 487.023 95.0542C494.845 95.9178 491.072 101.708 487.318 106.615C483.564 111.521 468.49 130.913 465.601 133.229C462.712 135.545 456.915 143.062 449.663 147.694C442.43 152.326 429.381 165.045 426.197 169.382C423.013 173.72 419.751 179.078 419.751 179.078C419.751 179.078 438.932 220.295 442.705 231.581C446.479 242.866 460.374 277.567 451.982 294.348C443.59 311.129 435.178 315.467 418.375 316.625C401.572 317.783 339.016 290.599 339.016 290.599C339.016 290.599 340.175 298.98 333.218 308.244C326.261 317.508 321.642 322.121 323.077 328.499C324.531 334.859 333.513 351.64 331.469 352.209C329.445 352.778 208.382 362.042 205.768 357.999C203.154 353.956 188.571 322.337 187.805 323.279C187.038 324.24 182.872 357.41 179.688 357.999C176.504 358.568 121.476 349.618 120.886 346.144C120.316 342.67 140.284 222.336 143.192 213.955C146.081 205.575 148.99 193.425 158.836 188.793C168.682 184.161 169.842 173.17 169.842 173.17C169.842 173.17 145.217 89.5782 147.241 73.955C149.265 58.3318 184.601 14.3671 199.381 13.7979C214.16 13.2287 245.723 31.1483 257.593 36.3691C269.463 41.5703 288.586 93.6411 292.065 118.509C295.543 143.376 302.5 160.746 302.5 160.746L328.285 209.912L393.651 244.75C393.651 244.75 384.768 191.993 383.609 183.317C382.449 174.642 376.376 157.292 387.087 148.322C397.798 139.353 414.896 127.792 418.65 126.634C422.404 125.476 423.328 122.65 423.328 122.65L425.018 123.435L425.037 123.396Z" fill="white"/>
<path d="M233.243 156.154C233.243 156.154 233.439 156.311 233.557 156.369C234.678 156.939 235.798 157.449 236.977 157.861C236.839 156.487 236.761 155.133 236.741 153.779C236.152 153.504 235.582 153.229 235.012 152.935C234.481 152.66 233.99 152.66 233.597 152.837C232.457 153.347 232.024 155.231 233.223 156.154H233.243Z" fill="#333333"/>
<path d="M163.14 97.2132C163.278 96.3104 164.241 95.4664 165.184 95.6823C170.687 96.9384 175.345 100.04 180.238 102.689C180.887 103.042 181.359 103.612 181.339 104.397C181.319 105.103 180.887 105.81 180.199 106.065C177.801 106.929 175.423 107.871 172.986 108.656C170.51 109.441 167.955 110.148 165.341 110.03C164.359 109.99 163.671 108.872 163.808 107.989C163.966 106.929 164.87 106.438 165.852 106.458C165.597 106.458 166.186 106.458 166.285 106.458C166.54 106.458 166.796 106.418 167.051 106.399C167.621 106.34 168.211 106.222 168.761 106.104C169.822 105.888 170.982 105.516 172.102 105.162C173.163 104.809 174.205 104.436 175.227 104.043C171.866 102.1 168.447 100.157 164.654 99.2937C163.71 99.0778 162.983 98.2731 163.121 97.2525L163.14 97.2132Z" fill="#333333"/>
<path d="M200.304 84.6715C200.855 82.9835 203.272 81.8648 204.726 81.1778C205.276 80.9227 206.063 81.0405 206.534 81.433C209.03 83.592 212.037 85.7117 215.496 85.6332C218.778 85.5547 221.215 83.6509 223.809 81.9237C225.755 80.6283 227.583 83.2191 225.952 84.7696C223.298 87.2819 219.328 89.2446 215.634 89.3035C211.664 89.3624 208.165 87.5174 205.159 85.0836C204.824 85.2799 204.49 85.4958 204.156 85.7313C203.96 85.8884 203.783 86.0454 203.606 86.2024C203.822 86.0454 203.37 86.6931 203.665 86.065C202.663 88.2044 199.616 86.8501 200.324 84.6519L200.304 84.6715Z" fill="#333333"/>
<path d="M252.09 81.2564C252.935 80.6283 253.918 80.9227 254.586 81.6097C254.232 81.2367 254.586 81.6096 254.665 81.6685C254.783 81.7667 254.901 81.8648 255.018 81.9629C255.117 82.0414 255.51 82.277 255.549 82.2966C256.08 82.5714 256.61 82.7873 257.161 82.9639C257.436 83.0228 257.593 83.0621 257.731 83.1013C258.084 83.1602 258.418 83.2191 258.772 83.2583C258.929 83.2583 259.067 83.278 259.224 83.2976C259.244 83.2976 259.381 83.2976 259.46 83.2976C259.755 83.2976 260.03 83.2976 260.325 83.2583C260.639 83.2191 260.954 83.1602 261.268 83.1209C261.504 83.0424 261.642 83.0032 261.779 82.9639C262.054 82.8658 262.31 82.748 262.565 82.6303C262.821 82.4536 262.939 82.3947 263.037 82.2966C263.469 81.8648 263.568 81.747 263.666 81.6293C263.843 81.276 263.941 81.0601 264.02 80.8246C264.02 80.7461 264.079 80.6087 264.079 80.5694C264.118 80.3535 264.137 80.1572 264.157 79.9413C264.275 78.4693 266.005 78.0768 267.085 78.7637C266.516 78.3908 267.007 78.7048 267.184 78.7833C267.282 78.8226 267.4 78.8618 267.498 78.9207C267.872 78.803 268.265 78.803 268.618 79.0189C269.444 79.4899 270.191 80.0002 270.191 81.0797C270.191 82.2966 269.051 83.0424 267.911 82.8658C267.675 82.8265 267.42 82.7676 267.164 82.7088C266.063 85.0837 263.587 86.5753 260.855 86.8893C257.554 87.2623 253.957 86.222 251.658 83.7686C251.009 83.0621 251.304 81.8059 252.012 81.276L252.09 81.2564Z" fill="#333333"/>
<path d="M256.119 104.181C253.505 104.416 250.852 104.357 248.218 104.377C247.216 104.377 246.469 105.515 246.587 106.438C246.705 107.517 247.649 108.087 248.651 108.067C252.601 108.067 256.571 108.185 260.443 107.262C262.015 106.889 262.663 105.103 261.366 103.945C257.377 100.373 253.387 96.644 250.498 92.0709C248.14 88.3417 246.882 84.0827 246.45 79.7254C246.214 77.5076 246.037 75.1719 246.371 72.9541C246.646 71.0306 247.295 69.1857 248.12 67.4192C249.751 63.906 252.306 60.2946 255.765 58.3907C259.028 56.6047 262.506 57.429 265.179 60.2161C265.415 60.4712 266.457 60.746 267.459 60.9619C268.265 61.1189 268.835 60.2161 268.363 59.5487C267.714 58.6459 267.066 57.8215 266.319 56.8598C265.749 56.114 265.769 55.2504 265.159 54.5438C264.825 54.4653 264.059 53.1503 263.705 53.0914C261.19 52.7774 255.746 54.2101 253.603 55.4663C249.535 57.8019 246.548 62.0218 244.642 66.222C243.718 68.2436 242.991 70.4222 242.696 72.64C242.323 75.2897 242.539 78.116 242.853 80.7657C243.423 85.8687 245.113 90.697 247.963 94.9757C250.243 98.3908 253.112 101.374 256.119 104.181Z" fill="#333333"/>
<path d="M236.269 114.034C244.131 116.86 252.758 116.33 260.6 119.353C261.052 119.529 261.347 119.824 261.524 120.157C262.31 120.628 262.506 121.551 262.251 122.414C260.698 127.851 256.001 131.286 250.38 131.129C245.192 130.992 240.121 128.106 236.957 124.083C235.13 121.767 233.931 118.901 233.754 115.938C233.675 114.524 234.953 113.563 236.289 114.053L236.269 114.034ZM243.993 125.457C247.256 127.419 251.579 128.322 254.979 126.477C255.628 126.124 256.532 125.339 257.121 124.593C257.652 123.926 258.025 123.18 258.359 122.395C251.776 120.079 244.661 120.059 237.94 118.332C238.942 121.315 241.183 123.769 244.013 125.457H243.993Z" fill="#333333"/>
<path d="M212.941 62.1199C213.118 62.1199 213.275 62.1592 213.433 62.1984C218.09 62.9639 222.709 64.6126 226.856 66.85C227.701 67.3211 228.86 66.7323 229.214 65.9079C229.627 64.9462 229.096 64.0434 228.251 63.5527C224.281 61.2759 219.781 59.6469 215.241 58.7833C214.848 59.3721 214.435 59.9609 214.042 60.5497C213.668 61.0797 213.295 61.6096 212.922 62.1199H212.941Z" fill="#333333"/>
<path d="M249.732 235.055C250.105 235.251 250.459 235.428 250.832 235.604C251.127 234.348 251.324 233.072 251.442 231.777C251.343 231.738 251.265 231.679 251.166 231.639C250.262 231.168 249.103 231.757 248.729 232.621C248.317 233.602 248.828 234.584 249.712 235.055H249.732Z" fill="#333333"/>
<path d="M119.275 347.243C119.491 349.579 123.009 349.226 123.009 347.008C123.068 347.557 123.009 347.008 123.087 346.733C123.166 346.301 123.245 345.869 123.303 345.438C124.424 339.039 125.721 332.66 126.821 326.262C128.767 314.839 129.946 303.337 132.088 291.954C136.314 269.5 138.908 246.752 143.507 224.338C145.256 215.8 146.926 206.909 151.722 199.451C155.672 193.327 161.489 188.597 168.8 187.263C176.622 185.83 184.877 187.635 192.07 190.776C199.793 194.132 206.711 199.137 212.823 204.907C219.132 210.854 224.576 217.724 229.076 225.104C233.204 231.875 236.643 239.274 238.549 247.008C238.412 247.557 238.549 248.205 238.844 248.617C239.493 249.481 240.573 249.5 241.438 248.99C263.744 235.899 245.172 205.143 229.548 194.054C222.493 189.049 217.953 182.748 217.756 174.211C217.442 160.668 212.45 152.464 201.248 145.28C190.537 138.411 179.688 130.481 182.145 116.153C182.164 115.996 182.066 115.879 182.007 115.741C182.675 115.015 183.285 114.25 183.815 113.425C185.112 111.482 182.243 109.245 180.926 111.188C179.197 113.798 176.78 116.016 173.635 116.605C170.746 117.154 167.877 116.487 165.302 115.172C160.408 112.699 156.498 107.733 155.495 102.336C154.591 97.5469 156.144 93.2289 159.76 90.4811C165.754 85.9473 172.888 88.0277 177.684 93.1897C180.632 96.3889 187.785 105.26 190.144 104.573C194.31 103.396 193.504 97.7235 193.111 94.7598C192.581 90.7166 191.46 86.6538 189.633 82.9836C190.615 82.3359 191.598 81.6882 192.6 81.0405C196.609 78.3712 200.56 75.6038 204.117 72.3456C207.458 69.2838 210.268 65.8098 212.902 62.1395C213.275 61.6096 213.649 61.0993 214.022 60.5694C214.415 60.0002 214.828 59.4114 215.221 58.8029C220.645 50.6969 225.185 41.7469 226.541 32.0119C231.671 31.5408 236.8 33.8765 241.124 36.3887C245.703 39.058 249.909 42.3946 253.82 45.9471C257.849 49.5978 262.251 53.0129 264.904 57.7627C268.147 63.5527 270.78 69.696 272.824 76.0159C276.932 88.6558 278.622 102.061 277.678 115.309C276.892 126.36 274.062 137.743 266.732 146.046C259.401 154.367 246.725 158.666 236.78 153.779C237.508 166.497 240.121 179.098 244.504 191.07C245.998 195.153 247.629 201.826 251.795 203.082C254.999 204.044 257.711 203.455 260.895 202.415C285.304 194.426 316.454 202.081 335.459 211.149C331.43 201.649 327.322 191.855 326.968 181.551C326.752 175.251 327.931 168.754 326.064 162.709C323.038 152.935 313.015 147.145 307.59 138.469C296.742 121.099 303.07 100.354 298.943 81.6882C296.31 69.8334 291.219 56.8206 282.435 48.0669C271.016 36.6635 260.227 28.0276 245.388 20.8244C221.608 9.28364 195.018 1.82533 169.803 11.423C156.773 16.3887 145.236 26.0452 139.694 39.0188C133.779 52.8363 134.584 68.6361 136.982 83.1406C139.753 99.8629 144.686 116.153 149.265 132.444C151.761 141.315 154.041 150.246 156.458 159.137C158.699 167.4 160.9 176.055 160.448 184.691C160.428 185.241 160.605 185.692 160.9 186.006C161.706 185.614 162.531 185.241 163.376 184.927C163.592 184.848 163.828 184.77 164.044 184.691C164.044 184.868 164.044 185.025 164.044 185.202C163.946 186.968 161.863 187.066 160.919 186.006C154.65 189.147 149.933 194.603 146.71 200.786C144.824 204.417 143.468 208.283 142.426 212.228C140.991 217.704 139.891 223.298 138.829 228.872C136.609 240.452 134.84 252.111 133.032 263.75C132.128 269.579 131.204 275.408 130.221 281.218C129.239 287.047 128.06 292.837 127.116 298.666C125.387 309.422 124.168 320.256 122.164 330.972C121.554 334.289 120.945 337.626 120.316 340.943C120.061 342.317 119.825 343.671 119.589 345.025C119.471 345.732 119.235 346.517 119.294 347.243H119.275Z" fill="#333333"/>
<path d="M160.88 185.987C161.824 187.047 163.907 186.948 164.005 185.182C164.005 185.005 164.005 184.848 164.005 184.672C163.789 184.75 163.553 184.829 163.337 184.907C162.492 185.221 161.666 185.594 160.861 185.987H160.88Z" fill="#333333"/>
<path d="M179.59 350.815C180.376 348.264 181.3 345.752 182.164 343.22C184.307 337.057 185.447 330.58 187.058 324.221C189.043 316.409 191.166 308.637 193.308 300.884C194.369 296.998 195.47 293.112 196.649 289.245C197.514 286.36 198.162 283.337 199.223 280.531C199.754 279.137 200.461 277.665 201.621 276.684C202.486 275.938 203.626 275.428 204.667 275.015C205.709 274.584 206.967 274.093 208.107 274.25C209.816 274.486 210.268 276.193 209.443 277.528C208.932 278.332 208.008 278.352 207.281 277.999C206.967 278.097 206.652 278.195 206.338 278.313C205.493 278.647 204.726 278.98 204.117 279.412C203.842 279.608 203.724 279.746 203.429 280.217C203.134 280.688 202.918 281.198 202.722 281.708C202.27 282.866 201.935 284.064 201.621 285.28C199.911 291.816 197.848 298.254 196.079 304.77C194.172 311.777 192.246 318.804 190.478 325.85C189.004 331.679 187.982 337.665 186.056 343.377C185.191 345.948 184.267 348.48 183.422 351.051C183.088 352.111 182.754 353.171 182.499 354.27C182.4 354.702 182.322 355.133 182.263 355.585C182.243 355.762 182.223 355.958 182.204 356.134C182.459 358.686 178.941 359.059 178.548 356.723C178.214 354.819 179.02 352.68 179.551 350.894L179.59 350.815Z" fill="#333333"/>
<path d="M422.541 123.671C423.721 120.334 423.701 116.428 423.78 112.895C423.878 108.813 423.78 104.711 424.251 100.668C424.821 95.5842 425.686 90.5008 426.61 85.4762C427.081 82.8462 427.632 80.2161 428.26 77.6253C428.791 75.4664 429.341 73.2485 430.403 71.2662C431.739 68.7931 434.235 65.9668 437.399 67.0463C440.524 68.1062 441.408 72.0905 441.546 74.9757C441.742 78.9993 441.094 83.121 440.504 87.1053C439.875 91.4821 439.109 95.8393 438.48 100.216C437.183 109.186 435.905 119.097 439.345 127.773C440.209 129.932 436.908 131.207 435.984 129.088C432.84 121.806 433.233 113.327 434.078 105.614C434.962 97.331 436.731 89.1661 437.576 80.8835C437.753 79.0778 437.969 77.2328 437.871 75.4075C437.831 74.5439 437.753 73.641 437.517 72.7971C437.379 72.3064 437.026 71.4624 436.927 71.3054C436.868 71.2269 436.613 70.8932 436.593 70.8344C436.495 70.7362 436.377 70.6381 436.259 70.5596C435.748 70.5596 435.552 70.6577 435.473 70.697C435.807 70.5203 435.178 70.9325 435.1 70.9914C434.844 71.2073 434.923 71.1288 434.648 71.4624C434.392 71.7765 434.156 72.0905 433.94 72.4242C432.918 74.0925 432.407 76.0552 431.936 77.9394C431.326 80.3928 430.796 82.8854 430.344 85.3781C429.44 90.3045 428.712 95.2702 428.005 100.216C427.396 104.515 427.514 108.911 427.415 113.249C427.337 117.135 427.376 121.433 425.843 125.064C424.919 127.243 421.716 125.83 422.482 123.651L422.541 123.671Z" fill="#333333"/>
<path d="M381.191 174.25C381.584 178.627 382.076 182.984 382.646 187.341C383.098 190.776 383.569 194.211 384.1 197.626C384.414 199.667 384.729 201.708 385.043 203.749C386.93 215.624 389.033 227.439 390.762 239.333C391.942 247.439 392.492 255.604 393.612 263.73C394.202 268.009 394.87 272.327 396.029 276.507C396.639 278.686 397.837 282.749 400.864 282.258C403.006 281.905 402.849 278.843 401.021 278.588C400.943 278.489 400.884 278.391 400.825 278.313C400.766 278.215 400.726 278.117 400.687 278.038C400.412 277.43 400.176 276.802 399.96 276.173C399.842 275.801 399.724 275.408 399.626 275.035C399.567 274.839 399.528 274.662 399.469 274.466C399.449 274.387 399.429 274.289 399.39 274.211C399.174 273.269 398.958 272.346 398.781 271.424C397.916 267.027 397.307 262.572 396.776 258.136C396.285 254.093 395.872 250.05 395.459 246.007C394.968 241.198 394.241 236.429 393.494 231.639C392.256 223.671 390.88 215.702 389.583 207.734C389.288 205.889 388.994 204.044 388.699 202.199C387.598 195.27 386.596 188.322 385.79 181.355C385.318 177.155 384.906 172.915 384.611 168.695C384.375 165.437 384.12 162.199 384.709 158.96C385.594 154.053 388.581 150.246 392.433 147.184C394.752 145.359 397.268 143.887 399.685 142.238C402.436 140.373 404.991 138.254 407.585 136.173C412.597 132.13 417.844 127.714 424.212 126.085C426.197 125.574 425.332 122.218 423.347 122.63C421.775 122.964 420.262 123.435 418.788 124.102C412.263 127.027 406.898 131.973 401.316 136.31C396.481 140.079 390.939 142.866 386.635 147.282C382.724 151.286 380.7 156.507 380.503 162.081C380.366 166.144 380.798 170.246 381.172 174.289L381.191 174.25Z" fill="#333333"/>
<path d="M458.192 72.9933C458.055 73.1299 458.055 73.1104 458.192 72.9933V72.9933Z" fill="#333333"/>
<path d="M434.628 120.962C436.122 118.195 436.986 115.035 437.989 112.051C439.581 107.262 441.094 102.473 442.705 97.6843C444.396 92.6793 446.125 87.6744 448.149 82.8069C449.682 79.117 451.313 75.1916 453.829 72.0512C454.694 70.9717 455.755 69.9119 457.072 69.4212C458.624 68.852 460.059 69.3819 461.356 70.2848C464.285 72.2868 465.228 75.9963 465.267 79.3525C465.306 83.9453 464.226 88.4595 462.968 92.8364C461.474 98.0179 459.607 103.082 457.642 108.087C455.794 112.856 453.829 117.586 452.021 122.356C451.274 124.299 450.567 126.261 449.938 128.244C449.82 128.636 449.702 129.029 449.584 129.421C449.446 129.892 449.387 130.128 449.348 130.344C449.191 131.011 449.034 131.678 448.955 132.365C448.916 132.64 448.916 132.895 448.877 133.17C448.877 133.327 448.877 133.445 448.877 133.582C449.073 135.879 445.516 136.291 445.3 133.994C445.024 130.952 446.243 127.733 447.206 124.927C448.68 120.57 450.449 116.31 452.139 112.032C454.085 107.145 456.011 102.257 457.701 97.2721C459.234 92.7775 460.59 88.3614 461.258 83.6312C461.553 81.6096 461.671 80.1965 461.494 78.3515C461.454 77.959 461.415 77.5665 461.337 77.1739C461.297 76.9973 461.258 76.801 461.238 76.6244C461.199 76.487 461.179 76.3888 461.16 76.2907C461.061 75.957 460.944 75.6234 460.806 75.3093C460.747 75.1523 460.668 75.0149 460.59 74.8579C460.315 74.4261 460.118 74.171 459.922 73.9158C459.725 73.7195 459.587 73.6018 459.45 73.484C459.312 73.3859 459.194 73.2877 459.057 73.1896C458.782 73.0326 458.624 72.9737 458.487 72.8952C458.153 72.9737 458.035 73.0326 457.937 73.1111C457.819 73.2092 457.406 73.5625 457.386 73.5821C456.974 74.0139 456.6 74.4654 456.246 74.956C456.03 75.2701 455.814 75.5841 455.618 75.8981C455.5 76.0748 455.401 76.2318 455.303 76.4085C455.244 76.487 455.205 76.5851 455.146 76.6832C454.104 78.5282 453.22 80.3928 452.394 82.277C450.37 86.8697 448.68 91.5999 447.049 96.3496C445.398 101.178 443.845 106.026 442.253 110.874C441.133 114.289 440.072 117.763 438.677 121.08C438.48 121.531 438.283 122.002 438.048 122.434C437.576 123.317 436.593 123.847 435.591 123.435C434.726 123.082 434.117 121.885 434.589 120.982L434.628 120.962Z" fill="#333333"/>
<path d="M465.641 105.633C468.038 100.648 470.043 95.3683 470.986 89.9119C471.694 85.7902 471.812 81.8452 470.259 77.9982C469.905 77.115 469.591 76.4477 469.1 75.7411C469.021 75.6234 468.942 75.5252 468.864 75.4075C468.824 75.3682 468.49 74.9757 468.51 74.9953C468.372 74.8775 468.058 74.642 467.979 74.5635C467.527 74.5242 467.39 74.6027 467.35 74.6224C466.545 75.1719 465.975 76.2122 465.424 77.0954C464.324 78.8618 461.376 77.0954 462.28 75.2504C463.223 73.327 464.756 71.1484 467.056 70.7951C468.883 70.5007 470.475 71.5213 471.615 72.8559C473.875 75.5252 475.153 79.6862 475.251 83.1405C475.644 95.7019 469.119 106.811 463.695 117.645C460.767 123.494 458.192 129.519 457.642 136.095C457.445 138.411 454.006 137.841 454.104 135.584C454.655 124.711 461.061 115.172 465.641 105.653V105.633Z" fill="#333333"/>
<path d="M419.141 178.823C421.166 173.7 424.428 169.029 427.926 164.809C431.7 160.256 435.925 156.075 440.426 152.228C444.455 148.793 448.896 145.947 453.181 142.827C455.244 141.315 457.268 139.745 459.135 137.998C461.179 136.095 462.811 133.896 464.442 131.659C467.979 126.831 471.93 122.297 475.782 117.724C479.005 113.896 481.933 109.794 485.254 106.045C486.591 104.554 487.927 103.023 489.028 101.355C489.48 100.687 489.873 99.961 490.109 99.1956C490.168 98.9993 490.207 98.8423 490.227 98.5479C490.227 98.6067 490.227 98.3908 490.207 98.2731C490.168 98.1749 490.089 97.9198 490.089 97.9002C489.499 96.644 488.183 96.4281 486.709 96.5851C484.999 96.7618 483.368 97.3702 481.815 98.1161C477.786 100.059 474.327 103.828 471.379 107.203C468.215 110.834 465.189 114.76 462.909 119.039C461.828 121.06 458.526 119.686 459.607 117.645C461.749 113.563 464.501 109.775 467.429 106.222C470.475 102.532 473.856 98.8423 477.865 96.173C480.931 94.1121 485.235 92.2083 489.008 92.9149C491.19 93.327 492.998 94.7402 493.725 96.8599C494.373 98.7245 493.725 100.707 492.782 102.356C490.738 105.967 487.613 108.793 485.136 112.091C481.304 117.194 477.039 121.963 472.971 126.87C470.967 129.284 469.001 131.737 467.154 134.289C465.385 136.703 463.557 138.94 461.356 141.001C457.386 144.731 452.768 147.635 448.346 150.795C442.922 154.681 437.949 159.176 433.469 164.122C429.086 168.97 425.155 174.269 422.522 180.275C421.559 182.474 418.218 181.06 419.102 178.823H419.141Z" fill="#333333"/>
<path d="M337.188 290.992C338.387 291.62 339.605 292.228 340.804 292.857C346.13 295.624 351.456 298.352 356.88 300.923C366.53 305.477 376.612 308.99 386.733 312.327C396.815 315.663 407.212 318.411 417.903 318.313C427.199 318.234 437.222 315.997 444.435 309.814C450.429 304.672 454.065 297.489 455.618 289.834C457.465 280.707 456.266 271.11 454.261 262.12C451.942 251.659 448.248 241.59 444.553 231.561C442.882 227.047 441.173 222.591 439.148 218.215C437.085 213.779 434.864 209.422 432.722 205.025C431.995 203.553 431.267 202.042 430.56 200.53C429.793 198.882 429.027 197.233 428.319 195.565C425.981 190.108 424.074 184.495 423.308 178.646C423.013 176.369 419.495 176.762 419.77 179.039C420.026 181.217 420.439 183.376 420.969 185.496C422.286 190.697 424.251 195.663 426.452 200.55C427.081 201.924 427.71 203.278 428.359 204.633C429.459 206.929 430.599 209.225 431.719 211.502C433.783 215.683 435.847 219.863 437.674 224.162C439.6 228.676 441.192 233.347 442.882 237.959C446.44 247.734 449.82 257.665 451.53 267.969C452.925 276.272 453.456 284.986 450.822 293.092C448.582 300.06 444.179 306.183 437.733 309.834C429.381 314.564 418.807 315.153 409.472 313.956C399.115 312.66 389.21 309.147 379.403 305.712C374.49 303.985 369.557 302.297 364.781 300.236C359.946 298.175 355.21 295.879 350.532 293.504C347.329 291.895 344.145 290.266 340.961 288.617C339.723 287.969 338.465 287.341 337.247 286.713C337.306 288.126 337.267 289.54 337.188 290.953V290.992Z" fill="#333333"/>
<path d="M233.597 152.837C233.872 152.503 234.245 152.267 234.756 152.189C235.621 152.091 236.702 152.778 236.741 153.739C236.741 155.133 236.839 156.487 236.977 157.861C237.134 159.628 237.37 161.414 237.625 163.18C238.254 167.714 239.099 172.228 240.161 176.683C241.261 181.257 242.617 185.908 244.425 190.305C244.858 191.365 245.329 192.405 245.821 193.445C246.312 194.466 246.686 195.153 247.157 195.938C247.668 196.782 248.218 197.626 248.808 198.411C249.064 198.744 249.339 199.078 249.614 199.412C249.751 199.588 249.889 199.745 250.046 199.902C250.125 199.981 250.203 200.059 250.282 200.158C250.97 200.805 251.658 201.355 252.405 201.865C252.503 201.924 252.581 201.963 252.66 202.003C252.857 202.101 253.034 202.179 253.21 202.277C253.407 202.375 253.623 202.434 253.839 202.513C254.409 202.67 254.802 202.729 255.215 202.768C255.313 202.768 255.392 202.768 255.49 202.768C255.746 202.768 255.962 202.748 256.158 202.709C257.731 201.021 260.285 200.197 262.329 199.471C263.705 198.98 265.1 198.528 266.496 198.136C267.282 197.9 268.068 197.685 268.854 197.488C270.348 197.096 271.842 196.723 273.335 196.37C276.814 195.565 280.253 194.976 283.83 194.858C289.451 194.642 295.071 195.231 300.535 196.527C311.246 199.039 321.23 203.789 331.037 208.656C331.213 208.754 331.41 208.833 331.607 208.931C332.943 209.598 334.279 210.285 335.596 210.992C344.774 215.859 353.48 221.551 362.403 226.85C372.662 232.955 384.296 237.155 393.651 244.692C395.459 246.144 393.278 248.951 391.45 247.537C383.275 241.276 373.664 237.41 364.722 232.444C354.738 226.909 345.324 220.432 335.282 214.996C330.368 212.346 325.318 209.893 320.247 207.577C315.373 205.339 310.401 203.259 305.271 201.649C296.29 198.823 286.581 197.547 277.246 199.333C275.851 199.608 274.455 199.902 273.06 200.236C271.566 200.589 270.092 200.982 268.638 201.394C267.773 201.649 266.909 201.904 266.063 202.16C260.05 204.044 255.569 208.735 249.575 204.436C246.214 202.022 243.993 198.175 242.264 194.525C237.979 185.555 235.798 175.486 234.284 165.712C233.793 162.552 233.341 159.372 233.204 156.173C233.164 155.506 233.145 154.858 233.145 154.191C233.145 153.7 233.282 153.209 233.557 152.856L233.597 152.837Z" fill="#333333"/>
<path d="M249.732 235.055C250.105 235.251 250.459 235.428 250.832 235.604C254.979 237.508 259.794 238.077 264.295 237.645C268.638 237.233 273.158 235.761 276.381 232.719C279.781 229.52 281.137 225.339 281.078 220.746C281.02 216.016 279.762 211.168 277.718 206.929C276.578 204.554 275.084 202.101 273.119 200.216C271.9 199.019 270.505 198.057 268.894 197.469C267.754 197.056 266.948 197.469 266.535 198.116C265.965 198.96 266.044 200.216 267.282 200.668C267.773 200.845 268.245 201.08 268.697 201.355C271.802 203.2 273.807 206.87 275.104 210.167C276.578 213.857 277.561 217.999 277.364 221.983C277.187 225.653 275.654 228.794 272.706 230.913C266.85 235.094 257.79 234.956 251.461 231.757C251.363 231.718 251.284 231.659 251.186 231.62C250.282 231.149 249.123 231.738 248.749 232.601C248.336 233.583 248.847 234.564 249.732 235.035V235.055Z" fill="#333333"/>
<path d="M160.88 185.987C161.824 187.047 163.907 186.948 164.005 185.182C164.005 185.005 164.005 184.848 164.005 184.672C163.789 184.75 163.553 184.829 163.337 184.907C162.492 185.221 161.666 185.594 160.861 185.987H160.88Z" fill="#333333"/>
<path d="M331.037 208.636C331.331 209.971 331.685 211.286 332.275 212.464C333.316 214.544 336.343 213.386 335.655 211.149C334.279 210.266 332.963 209.579 331.607 208.911C331.43 208.813 331.233 208.735 331.037 208.636Z" fill="#333333"/>
<path d="M312.071 242.847C314.214 247.008 317.83 250.168 320.974 253.563C327.872 261.041 334.594 270.089 336.559 280.295C336.972 282.415 337.208 284.574 337.267 286.753C337.326 288.166 337.286 289.579 337.208 290.992C337.129 292.444 336.992 293.877 336.795 295.31C336.146 299.942 334.908 304.378 332.216 308.264C329.661 311.954 326.477 315.173 324.197 319.039C323.175 320.766 322.311 322.572 322.016 324.574C321.76 326.321 321.878 328.146 322.134 329.873C322.763 333.956 324.158 337.901 325.73 341.689C327.126 345.025 328.678 348.342 330.506 351.463C331.548 353.23 334.574 351.522 333.67 349.716C331.862 346.125 330.054 342.552 328.58 338.784C327.067 334.937 325.553 330.698 325.612 326.497C325.652 322.906 327.971 319.844 330.172 317.018C332.963 313.445 336.029 310.011 337.896 305.83C339.684 301.826 340.49 297.253 340.844 292.857C340.883 292.405 340.902 291.973 340.942 291.542C341.001 290.58 341.04 289.618 341.04 288.656C341.079 284.594 340.647 280.55 339.546 276.625C336.716 266.595 330.093 257.802 323.038 250.344C320.444 247.616 317.417 244.966 315.589 241.63C313.644 238.116 314.155 234.309 315.491 230.678C316.277 228.519 312.995 227.125 312.189 229.284C310.538 233.72 309.91 238.489 312.13 242.827L312.071 242.847Z" fill="#333333"/>
<path d="M190.832 322.827C192.954 328.676 195.352 334.446 198.044 340.079C199.381 342.867 200.776 345.654 202.309 348.342C203.685 350.776 205.257 353.033 206.809 355.349C208.107 357.292 205.414 359.314 203.901 357.528C202.093 355.389 200.678 352.837 199.282 350.403C197.671 347.577 196.197 344.692 194.782 341.748C192.05 336.017 189.613 330.128 187.51 324.142C186.744 321.983 190.065 320.668 190.851 322.847L190.832 322.827Z" fill="#333333"/>
<path d="M384.1 197.645C384.414 199.687 384.729 201.728 385.043 203.769C385.633 204.319 386.222 204.888 386.812 205.418C387.696 206.222 388.62 206.988 389.564 207.734C392.413 209.932 395.538 211.777 398.977 212.915C403.773 214.505 409.079 214.858 414.051 213.838C418.532 212.935 422.62 210.933 425.882 207.694C426.806 206.772 427.632 205.751 428.359 204.691C429.223 203.396 429.951 202.022 430.54 200.589C429.774 198.941 429.007 197.292 428.3 195.624C427.867 197.351 427.278 199.039 426.452 200.629C425.352 202.807 423.858 204.75 421.912 206.32C415.27 211.698 405.207 211.875 397.661 208.401C394.32 206.87 391.411 204.691 388.699 202.238C387.127 200.786 385.594 199.255 384.1 197.685V197.645Z" fill="#333333"/>
<path d="M295.15 114.701C295.347 112.385 298.904 112.915 298.707 115.211C298.373 119.294 299.69 123.415 301.301 127.086C302.992 130.952 305.212 134.623 307.984 137.802C313.113 143.71 321.269 145.417 327.126 150.403C334.299 156.526 336.107 166.791 332.668 175.368C331.233 178.941 329.071 182.297 328.776 186.222C328.521 189.579 330.447 192.405 332.628 194.74C335.911 198.273 339.802 201.159 342.887 204.907C345.442 208.008 347.29 211.581 347.997 215.486C348.547 215.997 348.665 216.782 348.449 217.528C348.41 217.685 348.351 218.156 348.292 217.861C348.43 220.256 344.715 220.707 344.558 218.293C344.047 209.382 336.854 204.161 330.997 198.411C328.207 195.663 325.652 192.464 325.101 188.46C324.61 184.829 325.887 181.198 327.342 177.94C328.246 175.898 329.327 173.955 329.936 171.796C330.526 169.677 330.781 167.419 330.604 165.221C330.29 160.943 328.482 156.664 325.278 153.759C319.402 148.42 311.167 146.674 305.684 140.766C302.461 137.292 299.906 133.072 298 128.734C296.074 124.358 294.698 119.51 295.13 114.681L295.15 114.701Z" fill="#333333"/>
<path d="M180.651 113.7C181.123 111.443 184.68 111.914 184.228 114.21C183.108 119.863 184.759 125.496 188.198 130.049C189.947 132.346 192.07 134.309 194.487 135.898C196.708 137.351 199.223 138.332 201.68 139.333C206.357 141.237 211.172 142.964 215.378 145.81C219.722 148.754 222.886 153.052 224.202 158.155C225.067 161.512 225.362 164.946 224.831 168.381C224.34 171.698 222.984 174.76 222.375 178.038C221.313 183.789 227.465 187.891 231.612 190.638C234.422 192.503 237.331 194.25 239.827 196.546C242.244 198.784 244.308 201.355 246.057 204.142C249.044 208.892 251.913 214.054 253.486 219.471C256.001 228.107 256.119 239.765 247.531 245.163C246.43 245.85 245.271 246.419 244.032 246.851C241.772 247.636 240.397 244.22 242.676 243.377C246.705 241.885 249.476 238.902 250.597 234.741C251.756 230.462 251.304 225.712 250.164 221.473C248.769 216.35 246.194 211.502 243.443 206.988C241.772 204.279 239.886 201.649 237.527 199.49C235.09 197.233 232.241 195.506 229.469 193.681C226.698 191.855 224.124 189.853 221.903 187.4C220.134 185.437 218.68 183.062 218.503 180.373C218.287 177.174 219.682 174.171 220.449 171.129C221.235 168.067 221.608 164.986 221.156 161.845C220.429 156.683 217.972 152.307 213.727 149.225C209.777 146.36 205.08 144.731 200.599 142.925C198.103 141.924 195.588 140.903 193.268 139.529C190.733 138.018 188.473 136.114 186.527 133.916C182.695 129.618 180.14 123.887 180.18 118.077C180.18 116.585 180.337 115.133 180.632 113.68L180.651 113.7Z" fill="#333333"/>
<path d="M0.727173 127.969C3.02658 119.745 10.9468 116.114 18.867 115.152C29.0276 113.936 39.3258 113.327 49.5651 113.288C60.3153 113.249 71.1835 113.759 81.7176 116.036C86.1591 116.997 90.5418 118.273 94.7082 120.138C96.8897 121.119 95.4354 124.534 93.2736 123.553C84.4886 119.608 74.6817 118.214 65.15 117.488C54.5963 116.683 43.964 116.88 33.3906 117.586C28.8704 117.881 24.3502 118.273 19.8496 118.783C15.7225 119.254 11.4774 120.216 8.19534 122.925C2.41733 127.694 3.16415 135.839 5.56183 142.159C9.06009 151.364 16.2335 159.196 23.23 165.947C31.327 173.779 40.4854 180.432 50.0564 186.379C59.6864 192.366 69.7292 197.626 79.7916 202.827C91.151 208.695 102.609 214.368 114.302 219.569C162.158 240.786 213.334 254.819 264.707 264.456C290.571 269.304 316.71 272.817 342.946 274.937C356.153 275.997 369.38 276.645 382.606 277.469C396.285 278.313 409.983 279.137 423.681 279.373C434.844 279.569 446.282 279.962 457.347 278.254C465.955 276.919 477.491 273.681 481.363 264.888C484.291 258.234 481.009 250.835 477.216 245.261C472.637 238.568 466.486 232.915 459.804 228.342C456.993 226.419 454.065 224.711 450.92 223.416C448.778 222.513 450.174 219.216 452.316 220.099C459.548 223.082 466.112 227.95 471.733 233.327C477.531 238.902 483.151 245.673 485.313 253.583C487.357 261.041 485.313 268.205 479.398 273.288C471.183 280.354 459.391 282.199 448.935 282.827C436.436 283.573 423.76 283.161 411.241 282.69C396.933 282.14 382.646 281.139 368.358 280.276C340.667 278.607 313.113 276.173 285.697 271.836C258.595 267.557 231.73 261.767 205.218 254.701C178.568 247.596 152.233 239.373 126.723 228.892C102.923 219.117 79.6343 207.675 57.2691 194.937C47.1281 189.166 37.2426 182.866 28.2415 175.388C19.712 168.303 11.2219 160.02 5.52252 150.442C1.61154 143.887 -1.39536 135.663 0.746826 128.008L0.727173 127.969Z" fill="#4510A3"/>
<path d="M363.602 55.5252C368.908 44.8676 383.451 37.2523 395.027 47.7528C413.835 64.7892 388.561 88.5184 369.419 76.7617C360.673 71.4035 360.005 62.7676 363.602 55.5252Z" fill="#0CD2AB"/>
<path d="M336.186 112.601C339.075 114.721 342.494 116.134 345.835 117.39C350.139 118.98 354.542 120.236 358.964 121.394C366.235 123.278 374.018 125.319 381.604 125.457C382.94 125.476 384.179 124.927 384.69 123.729C385.338 123.514 385.928 123.003 386.242 122.12C388.424 116.153 388.935 109.559 387.441 103.376C386.124 97.9198 383.333 92.856 378.853 89.3623C373.959 85.4958 367.159 83.7294 360.988 84.7303C348.312 86.8108 341.138 99.0189 335.282 109.186C334.672 110.265 335.262 111.934 336.186 112.621V112.601Z" fill="#0CD2AB"/>
<path d="M71.4783 271.973C70.8494 275.114 70.5546 278.293 70.3581 281.492C70.2991 282.474 70.8691 283.416 71.9107 283.573C74.4263 283.926 76.9615 283.377 79.3789 282.709C82.3465 281.885 85.1962 280.727 87.9869 279.451C93.3129 277.037 98.4227 274.191 103.493 271.286C104.358 270.776 104.417 269.422 103.867 268.696C103.493 268.185 102.963 267.989 102.412 267.989C100.644 264.907 97.8528 262.434 94.8065 260.648C88.7927 257.096 79.8505 255.702 75.1927 262.179C73.1292 265.045 72.1269 268.578 71.4587 271.993L71.4783 271.973Z" fill="#4510A3"/>
<path d="M63.8136 246.105C64.8159 248.872 66.5061 251.541 68.9431 253.269C73.2078 256.272 79.0251 255.977 82.995 252.601C86.4539 249.657 87.81 245.477 87.7118 241.218C88.6355 240.943 89.3626 240.02 88.9106 238.882C86.5522 232.837 80.7349 228.735 74.2101 228.715C69.0806 228.695 64.3639 231.679 63.0275 236.762C62.2217 239.824 62.772 243.161 63.8136 246.105Z" fill="#4510A3"/>
<path d="M7.54675 180.511C16.3317 186.183 26.6102 189.127 35.1004 195.251C35.8472 195.781 37.1247 195.781 37.6553 194.917C41.1339 189.422 41.92 182.827 42.2541 176.448C42.5882 169.991 42.2934 163.416 43.5512 157.056C43.6495 156.526 43.5512 156.095 43.2761 155.761C44.0819 154.426 42.8633 152.287 41.0749 153.072C34.6877 155.839 28.9097 159.961 23.4658 164.24C18.0219 168.519 12.8728 173.151 7.56642 177.606C6.74099 178.313 6.48548 179.843 7.54675 180.53V180.511Z" fill="#4510A3"/>
<path d="M101.272 150.521C102.982 147.243 106.598 145.574 110.195 145.751C111.964 145.849 113.811 146.536 115.088 147.792C116.425 149.107 117.113 150.815 117.25 152.621C117.427 153.386 117.525 154.191 117.525 154.976C117.525 156.154 117.309 157.312 116.798 158.371C116.012 159.981 114.735 161.198 113.104 161.983C110.116 163.435 106.186 162.944 103.611 160.884C100.663 158.528 99.484 153.955 101.253 150.54L101.272 150.521Z" fill="#4510A3"/>
<path d="M313.663 22.5123C309.202 20.1571 306.175 15.1129 307.099 10.0098C307.984 5.04417 312.13 0.765454 317.201 0.0981316C320.896 -0.392547 324.728 1.13837 327.283 3.82729C328.187 3.57214 329.012 4.08244 329.425 4.90678C332.019 9.97058 331.587 16.1924 327.381 20.2552C323.765 23.7488 318.184 24.9265 313.644 22.5319L313.663 22.5123ZM327.342 10.6575C326.968 10.4613 326.674 10.1472 326.536 9.75468C325.494 6.37882 322.37 3.84692 318.793 3.72915C315.294 3.61139 312.248 6.18254 311.069 9.36214C309.811 12.8165 311.423 16.526 314.312 18.6065C317.24 20.7066 321.033 20.4711 323.903 18.3906C326.556 16.4672 327.558 13.6016 327.342 10.6575Z" fill="#4510A3"/>
<path d="M304.033 48.8912C305.134 42.2572 306.745 34.7008 313.152 31.1483C319.245 27.7724 326.556 30.5006 330.958 35.3092C333.434 37.9981 335.105 41.374 336.363 44.7695C336.933 45.0639 337.365 45.6723 337.444 46.2808C337.561 47.3799 336.775 48.165 335.773 48.3809C325.848 50.481 315.747 51.325 305.606 50.9913C304.623 50.952 303.876 49.794 304.033 48.8912ZM332.629 45.162C330.231 39.3132 325.789 33.0717 318.793 33.3269C311.501 33.582 309.202 41.1974 308.062 47.3407C316.297 47.4584 324.531 46.693 332.629 45.1424V45.162Z" fill="#4510A3"/>
<path d="M461.926 191.345C467.39 187.773 469.709 180.059 466.997 174.112C466.663 173.524 466.348 172.935 466.053 172.326C465.149 170.54 468.097 168.872 469.178 170.599C469.257 170.736 469.335 170.874 469.414 171.031C469.453 171.09 469.493 171.168 469.532 171.247C469.709 171.58 469.905 171.894 470.063 172.248C473.816 179.176 479.005 185.261 485.195 190.108C486.532 189.539 487.534 190.697 487.534 191.836C487.75 191.993 487.967 192.15 488.183 192.307C490.089 193.602 487.888 196.409 486.001 195.133C485.628 194.878 485.254 194.603 484.881 194.328C479.869 197.371 476.666 203.298 476.843 209.166C477.118 210.442 477.334 211.718 477.432 213.013C477.57 214.937 474.504 215.938 473.954 213.877C473.915 213.72 473.895 213.563 473.856 213.426C473.58 212.248 473.404 211.168 473.345 210.089C471.91 203.533 467.763 197.763 461.946 194.269C460.963 193.681 461.061 191.973 461.965 191.384L461.926 191.345ZM474.308 202.317C475.664 198.214 478.278 194.525 481.835 191.973C477.983 188.813 474.543 185.202 471.576 181.217C471.202 185.535 469.316 189.716 466.073 192.68C469.532 195.192 472.342 198.529 474.308 202.317Z" fill="#4510A3"/>
<path d="M77.6887 55.9962C82.5233 56.7224 85.1175 50.8539 85.5499 46.9285C85.9037 43.69 85.1372 40.3534 84.7441 37.1542C84.3511 33.7979 84.2724 30.4809 85.1765 27.2032C85.2158 27.0266 85.2551 26.8892 85.2944 26.7322C85.5499 25.8686 86.6701 25.476 87.4563 25.7115C88.3799 25.9863 88.8123 26.7714 88.773 27.7135C88.3406 38.1944 94.3741 48.322 103.139 53.8372C104.889 54.9364 106.775 55.8196 108.741 56.4869C109.763 55.8196 110.843 56.3691 111.295 57.2524C113.359 57.9 112.848 61.2563 110.647 60.746C110.273 60.6675 109.92 60.5497 109.546 60.4516C104.613 64.3966 100.309 69.6763 99.3071 76.0355C99.2481 76.4477 99.1892 76.8402 99.1695 77.272C100.427 79.1562 101.587 81.1189 102.668 83.1209C104.299 86.1239 105.694 89.2446 106.874 92.4634C107.365 93.8177 105.911 95.5842 104.476 94.7991C99.3071 92.012 96.2412 86.6931 95.5926 80.9227C95.4944 80.0591 95.4747 79.1955 95.4944 78.3515C90.3846 70.8932 83.899 64.3966 76.3326 59.2936C74.78 58.2533 75.9788 55.7803 77.7083 56.0355L77.6887 55.9962ZM96.2215 73.1307C97.1256 69.8333 98.7764 66.7323 100.86 64.0041C102.255 62.1984 103.847 60.5497 105.557 59.0384C98.6389 56.0944 92.8216 50.7361 89.1857 44.1414C89.284 45.9275 89.2054 47.7136 88.773 49.4996C87.8297 53.2877 85.5106 57.2327 82.032 58.901C87.3776 62.9835 92.1337 67.7921 96.2019 73.1503L96.2215 73.1307Z" fill="#4510A3"/>
</svg>
